<?xml version="1.0" encoding="utf-8"?>
<!-- Generator: Adobe Illustrator 21.0.0, SVG Export Plug-In . SVG Version: 6.00 Build 0)  -->
<svg version="1.1" id="Capa_1" xmlns="http://www.w3.org/2000/svg" xmlns:xlink="http://www.w3.org/1999/xlink" x="0px" y="0px"
	 viewBox="0 0 512 512" style="enable-background:new 0 0 512 512;" xml:space="preserve">
<path d="M492,133.5V-0.8H20v134.3h-0.1c0,21,7.8,40.1,20.7,54.8v324.6H132h30v-30v-47.7V303.5h85.3v179.3H247v30h30.3h194V188.3
	C484.2,173.6,492.1,154.4,492,133.5L492,133.5z M50,29.2h412v74.5c0,0,0,0,0,0H354c-0.1,0.2-0.2,0.3-0.3,0.5h-43.5
	c-0.1-0.2-0.2-0.3-0.3-0.5H202c-0.1,0.2-0.2,0.3-0.3,0.5h-44.5c-0.1-0.2-0.2-0.3-0.3-0.5H50v-1.6V29.2z M277.3,482.8V273.5H132
	v209.3H70.7V210.1c10.2,4.4,21.4,6.8,33.1,6.8c33.7,0,62.8-19.9,76.1-48.4c13.3,28.6,42.4,48.4,76.1,48.4s62.8-19.9,76.1-48.4
	c13.3,28.6,42.4,48.4,76.1,48.4c11.8,0,23-2.4,33.1-6.8v63.4h-80.5v41.2h80.5v25.8H388v41.2h53.3v101.2H277.3z"/>
</svg>
