<?xml version="1.0" encoding="utf-8"?>
<!-- Generator: Adobe Illustrator 21.0.0, SVG Export Plug-In . SVG Version: 6.00 Build 0)  -->
<svg version="1.1" id="Capa_1" xmlns="http://www.w3.org/2000/svg" xmlns:xlink="http://www.w3.org/1999/xlink" x="0px" y="0px"
	 viewBox="0 0 512 512" style="enable-background:new 0 0 512 512;" xml:space="preserve">
<style type="text/css">
	.st0{opacity:0.2;fill:#E5E5E5;}
	.st1{fill:#B5B5B5;}
	.st2{fill:#939393;}
	.st3{fill:#B2B2B2;}
	.st4{fill:#D6D6D6;}
	.st5{fill:#9B9B9B;}
	.st6{opacity:5.000000e-02;}
	.st7{fill:#EFEFEF;}
</style>
<circle class="st0" cx="256" cy="256" r="246.3"/>
<g>
	<g>
		<polygon class="st1" points="112.7,189.4 112.7,385.5 160.3,385.5 160.3,264.5 233.4,264.5 233.4,385.5 332.1,385.5 332.1,189.4 
					"/>
		<rect x="112.7" y="183.7" class="st2" width="219.4" height="54.6"/>
		<g>
			<rect x="112.7" y="361.3" class="st2" width="47.6" height="24.2"/>
			<rect x="233.4" y="361.3" class="st2" width="98.8" height="24.2"/>
		</g>
		<g>
			<path class="st3" d="M181.7,125.2v68c0,22.6,18.4,41,41,41s41-18.4,41-41v-68H181.7z"/>
			<path class="st4" d="M99.7,125.2v68c0,22.6,18.4,41,41,41s41-18.4,41-41v-68H99.7z"/>
			<path class="st4" d="M263.7,125.2v68c0,22.6,18.4,41,41,41s41-18.4,41-41v-68H263.7z"/>
		</g>
		<rect x="276.1" y="264.3" class="st5" width="56.1" height="20.7"/>
		<rect x="290" y="298.6" class="st5" width="42.2" height="20.7"/>
		<rect x="99.7" y="125.2" class="st6" width="246" height="70.2"/>
	</g>
	<g>
		<rect x="377.7" y="343" class="st2" width="22.8" height="42.5"/>
		<rect x="385.1" y="185.1" class="st1" width="8.1" height="158"/>
		<circle class="st7" cx="389.1" cy="163.1" r="23.2"/>
		<g>
			<path class="st2" d="M404.2,144.1c-4.1-3.3-9.4-5.3-15.1-5.3s-10.9,2-15.1,5.3H404.2z"/>
			<path class="st2" d="M366.4,171.7c3.5,9.1,12.3,15.6,22.7,15.6c10.4,0,19.2-6.5,22.7-15.6H366.4z"/>
		</g>
	</g>
	<rect x="99.7" y="380" class="st2" width="312.7" height="6.8"/>
</g>
</svg>
