<?xml version="1.0" encoding="utf-8"?>
<!-- Generator: Adobe Illustrator 21.0.0, SVG Export Plug-In . SVG Version: 6.00 Build 0)  -->
<svg version="1.1" id="Capa_1" xmlns="http://www.w3.org/2000/svg" xmlns:xlink="http://www.w3.org/1999/xlink" x="0px" y="0px"
	 viewBox="0 0 512 512" style="enable-background:new 0 0 512 512;" xml:space="preserve">
<style type="text/css">
	.st0{fill:#FFFFFF;}
</style>
<g>
	<path id="Facebook" class="st0" d="M206.1,140.6c0,9.5,0,51.9,0,51.9h-38v63.5h38v188.6h78.1V256h52.4c0,0,4.9-30.4,7.3-63.7
		c-6.8,0-59.4,0-59.4,0s0-36.9,0-43.4c0-6.5,8.5-15.2,16.9-15.2c8.4,0,26.1,0,42.5,0c0-8.6,0-38.5,0-66.1c-21.9,0-46.9,0-57.9,0
		C204.2,67.6,206.1,131.1,206.1,140.6z"/>
</g>
</svg>
