<?xml version="1.0" encoding="utf-8"?>
<!-- Generator: Adobe Illustrator 21.0.0, SVG Export Plug-In . SVG Version: 6.00 Build 0)  -->
<svg version="1.1" id="Capa_1" xmlns="http://www.w3.org/2000/svg" xmlns:xlink="http://www.w3.org/1999/xlink" x="0px" y="0px"
	 viewBox="0 0 57 57" style="enable-background:new 0 0 57 57;" xml:space="preserve">
<style type="text/css">
	.st0{opacity:0.2;fill:#FFFFFF;enable-background:new    ;}
	.st1{fill:#395498;}
	.st2{clip-path:url(#SVGID_2_);}
	.st3{fill:#FFFFFF;}
</style>
<circle class="st0" cx="28.5" cy="28.5" r="27.6"/>
<circle class="st1" cx="28.5" cy="28.5" r="17.5"/>
<g>
	<defs>
		<circle id="SVGID_1_" cx="28.5" cy="28.5" r="17.5"/>
	</defs>
	<clipPath id="SVGID_2_">
		<use xlink:href="#SVGID_1_"  style="overflow:visible;"/>
	</clipPath>
	<g class="st2">
		<path id="Facebook" class="st3" d="M24.8,23.8c0,0.7,0,3.9,0,3.9h-2.8v4.8h2.8v14.1h5.9V32.5h3.9c0,0,0.4-2.3,0.5-4.8
			c-0.5,0-4.5,0-4.5,0s0-2.8,0-3.3c0-0.5,0.6-1.1,1.3-1.1c0.6,0,2,0,3.2,0c0-0.6,0-2.9,0-5c-1.6,0-3.5,0-4.3,0
			C24.6,18.4,24.8,23.1,24.8,23.8z"/>
	</g>
</g>
</svg>
