<?xml version="1.0" encoding="utf-8"?>
<!-- Generator: Adobe Illustrator 21.0.0, SVG Export Plug-In . SVG Version: 6.00 Build 0)  -->
<svg version="1.1" id="Capa_1" xmlns="http://www.w3.org/2000/svg" xmlns:xlink="http://www.w3.org/1999/xlink" x="0px" y="0px"
	 viewBox="0 0 512 512" style="enable-background:new 0 0 512 512;" xml:space="preserve">
<style type="text/css">
	.st0{fill:#4E901E;}
	.st1{fill:#47821C;}
	.st2{fill:#FFEB99;}
	.st3{fill:#FFE477;}
	.st4{fill:#E0E0E2;}
	.st5{fill:#C7C6CC;}
	.st6{fill:#FF0C38;}
	.st7{fill:#D80027;}
	.st8{fill:#FF9F34;}
	.st9{fill:#FB8F2D;}
	.st10{fill:#914F16;}
	.st11{fill:#FDD79B;}
</style>
<g>
	<path class="st0" d="M18.2,168.6c24.3-24.3,63.7-24.3,88,0c3.5,3.5,3.5,9.2,0,12.7l-75.3,75.3c-3.5,3.5-9.2,3.5-12.7,0
		C-6.1,232.3-6.1,192.9,18.2,168.6z"/>
	<path class="st1" d="M55.6,165.3c5.9-5.9,12.7-10.4,20-13.4c-20-4.4-41.8,1.2-57.4,16.7c-24.3,24.3-24.3,63.7,0,88
		c3.5,3.5,9.2,3.5,12.7,0l15.3-15.3C31.9,217.4,35,185.9,55.6,165.3z"/>
	<path class="st2" d="M25.4,176.3c20.5-20.5,53.8-20.5,74.3,0c1.9,1.9,3.7,4,5.3,6.1l-73.5,73.5c-2.1-1.6-4.2-3.3-6.1-5.3
		C4.9,230.1,4.9,196.8,25.4,176.3z"/>
	<path class="st3" d="M53.1,161.8l15.2,57.4L10.9,204c1.9-10.1,6.7-19.9,14.5-27.7S43,163.6,53.1,161.8z"/>
	<path class="st4" d="M198.9,491h-15c-13.1,0-14.2-13.7-14.3-17.2v-75.4c0.1-48.1,14.3-54.2,14.3-54.2h-43.8c0,0,14.3,6.1,14.3,54.7
		v74.7c-0.1,3.4-1.2,17.4-14.3,17.4h-15c-5.8,0-10.5,4.7-10.5,10.5c0,5.8,4.7,10.5,10.5,10.5h73.8c5.8,0,10.5-4.7,10.5-10.5
		S204.7,491,198.9,491z"/>
	<g>
		<path class="st5" d="M140.1,491h-15c-5.8,0-10.5,4.7-10.5,10.5s4.7,10.5,10.5,10.5h16.2c-5.8,0-10.5-4.7-10.5-10.5
			C130.8,493.4,140.1,491,140.1,491z"/>
		<path class="st5" d="M152.6,372.4c6.9,1.9,12.1,1.6,18.8,0c3.9-24.4,12.5-28.1,12.5-28.1h-43.8C140.1,344.3,148.8,348,152.6,372.4
			z"/>
	</g>
	<path class="st4" d="M275.4,203.2c-2.2-4-6.4-6.6-11-6.6H59.7c-4.6,0-8.8,2.5-11,6.6c-2.2,4-2,9,0.5,12.8L117,320.7
		c2.3,3.7,19.8,30.3,45,30.3s42.7-26.6,45-30.3L274.9,216C277.4,212.2,277.6,207.2,275.4,203.2z"/>
	<path class="st5" d="M174.9,320.7L107,216c-2.5-3.9-2.7-8.8-0.5-12.8c2.2-4,6.4-6.6,11-6.6H59.7c-4.6,0-8.8,2.5-11,6.6
		c-2.2,4-2,9,0.5,12.8L117,320.7c2.3,3.7,19.8,30.3,45,30.3c11.5,0,21.4-5.5,28.9-11.9C181.9,331.5,176.1,322.7,174.9,320.7z"/>
	<path class="st6" d="M250.3,215.9c-1.7-3.1-4.9-5-8.5-5H82.2c-3.5,0-6.8,1.9-8.5,5c-1.7,3.1-1.5,6.9,0.4,9.8l54,83.3
		c0,0,13,23.5,33.9,23.5c18.7,0,32.3-21,33.8-23.4l54.1-83.5C251.8,222.8,251.9,219,250.3,215.9z"/>
	<g>
		<path class="st7" d="M73.8,215.9c-1.7,3.1-1.5,6.9,0.4,9.8l54,83.3c0,0,13,23.5,33.9,23.5c6.4,0,12.2-2.5,17.1-5.8
			c-2.2-2.9-3.7-5.1-4.3-6L107,216c-1-1.6-1.7-3.4-1.9-5.2H82.2C78.7,210.9,75.5,212.8,73.8,215.9z"/>
		<path class="st7" d="M204,255.8c-2.6-1.6-3.3-5.1-1.6-7.6l3-4.7c1.7-2.6,5.1-3.3,7.6-1.6c2.6,1.7,3.3,5.1,1.6,7.6l-3,4.7
			C210.6,255.8,207.6,258,204,255.8z"/>
		<path class="st7" d="M182.3,289.3c-2.5-1.8-3.3-5.1-1.6-7.6l13.7-21.1c1.7-2.6,5.1-3.3,7.6-1.6c2.6,1.7,3.3,5.1,1.6,7.6L190,287.6
			C188.9,289.3,185.4,291.4,182.3,289.3z"/>
	</g>
</g>
<g>
	<path class="st4" d="M502.6,139.1H309.7c-5.2,0-9.4,4.2-9.4,9.4v354.2c0,5.2,4.2,9.4,9.4,9.4h192.9c5.2,0,9.4-4.2,9.4-9.4V148.5
		C512,143.3,507.8,139.1,502.6,139.1z"/>
	<path class="st5" d="M502.6,139.1h-33.8V512h33.8c5.2,0,9.4-4.2,9.4-9.4V148.5C512,143.3,507.8,139.1,502.6,139.1z"/>
	<path class="st8" d="M300.3,209.6H512v253.2H300.3V209.6z"/>
	<path class="st9" d="M468.8,209.6H512v253.2h-43.2V209.6z"/>
	<path class="st10" d="M428.9,405.6c-0.2,0-0.4,0-0.7,0c-5.2-0.4-9.1-4.8-8.7-10l26.8-386c0.4-5.2,4.9-9.1,10-8.7
		c5.2,0.4,9.1,4.8,8.7,10l-26.8,386C437.9,401.8,433.8,405.6,428.9,405.6z"/>
	<g>
		<path class="st11" d="M397.4,379.9c0,3.7-4.8,6.8-10.7,6.8c-5.9,0-10.7-3-10.7-6.8s4.8-6.8,10.7-6.8
			C392.6,373.2,397.4,376.2,397.4,379.9z"/>
		<path class="st11" d="M363.7,237.3c0,3.7-4.8,6.8-10.7,6.8c-5.9,0-10.7-3-10.7-6.8c0-3.7,4.8-6.8,10.7-6.8
			C358.9,230.5,363.7,233.6,363.7,237.3z"/>
		<path class="st11" d="M363.7,331.5c0,3.7-4.8,6.8-10.7,6.8c-5.9,0-10.7-3-10.7-6.8c0-3.7,4.8-6.8,10.7-6.8
			C358.9,324.8,363.7,327.8,363.7,331.5z"/>
		<path class="st11" d="M367,406.8c0,3.7-4.8,6.8-10.7,6.8c-5.9,0-10.7-3-10.7-6.8c0-3.7,4.8-6.8,10.7-6.8
			C362.2,400.1,367,403.1,367,406.8z"/>
		<path class="st11" d="M388.1,427.3c0,3.7-4.8,6.8-10.7,6.8c-5.9,0-10.7-3-10.7-6.8s4.8-6.8,10.7-6.8
			C383.3,420.5,388.1,423.5,388.1,427.3z"/>
	</g>
</g>
</svg>
