<?xml version="1.0" encoding="utf-8"?>
<!-- Generator: Adobe Illustrator 21.0.0, SVG Export Plug-In . SVG Version: 6.00 Build 0)  -->
<svg version="1.1" id="Layer_1" xmlns="http://www.w3.org/2000/svg" xmlns:xlink="http://www.w3.org/1999/xlink" x="0px" y="0px"
	 viewBox="0 0 3080 340" style="enable-background:new 0 0 3080 340;" xml:space="preserve">
<style type="text/css">
	.st0{fill:#F4B22F;}
	.st1{fill:#FFFFFF;}
</style>
<g>
	<g>
		<g>
			<g>
				<polygon class="st0" points="3,71 208,71 208,335 5,335 				"/>
			</g>
			<g>
				<path class="st1" d="M208,340H5c-2.8,0-5-2.2-5-5V5c0-2.8,2.2-5,5-5h203c2.8,0,5,2.2,5,5v330C213,337.8,210.8,340,208,340z
					 M10,330h193V10H10V330z"/>
			</g>
			<g>
				<path class="st1" d="M188.5,52c-0.9,0-1.8,0.1-2.6,0.2C184.7,40.9,175.2,32,163.5,32c-9.1,0-16.9,5.4-20.5,13.1
					c-0.7-0.1-1.3-0.1-2-0.1c-3.3,0-6.4,1-9,2.8c-2.6-1.7-5.7-2.8-9-2.8c-2.2,0-4.2,0.4-6.1,1.2c-4.1-5-10.4-8.2-17.4-8.2
					c-7.5,0-14.1,3.6-18.2,9.3c-3-1.4-6.3-2.3-9.8-2.3c-6.4,0-12.2,2.7-16.3,7c-2.9-4.2-7.7-7-13.2-7c-7.4,0-13.6,5.1-15.4,11.9
					C24.4,55.7,21.8,55,19,55c-8.8,0-16,7.2-16,16c0,8.8,7.2,16,16,16c3.3,0,6.3-1,8.8-2.6c2.7,5.1,8,8.6,14.2,8.6
					c6.3,0,11.7-3.6,14.3-8.9c4,3.7,9.3,5.9,15.2,5.9c4.3,0,8.4-1.2,11.8-3.3C86.2,90.5,90.8,93,96,93c4.5,0,8.6-1.9,11.5-4.9
					c2.9,3,7,4.9,11.5,4.9c5.7,0,10.7-3,13.5-7.4c3.2,8.4,11.4,14.4,21,14.4c7.8,0,14.7-4,18.7-10c4.1,4.3,9.9,7,16.3,7
					c12.4,0,22.5-10.1,22.5-22.5S200.9,52,188.5,52z"/>
			</g>
		</g>
		<g>
			<path class="st1" d="M251.7,283.5h-40.9v-17h40.9c10.5,0,19-8.4,19-18.7V115.2c0-10.3-8.5-18.7-19-18.7h-44.3v-17h44.3
				c20,0,36.3,16,36.3,35.7v132.7C288,267.5,271.7,283.5,251.7,283.5z"/>
		</g>
	</g>
	<g>
		<g>
			<g>
				<polygon class="st0" points="701,71 906,71 906,335 703,335 				"/>
			</g>
			<g>
				<path class="st1" d="M906,340H703c-2.8,0-5-2.2-5-5V5c0-2.8,2.2-5,5-5h203c2.8,0,5,2.2,5,5v330C911,337.8,908.8,340,906,340z
					 M708,330h193V10H708V330z"/>
			</g>
			<g>
				<path class="st1" d="M886.5,52c-0.9,0-1.8,0.1-2.6,0.2C882.7,40.9,873.2,32,861.5,32c-9.1,0-16.9,5.4-20.5,13.1
					c-0.7-0.1-1.3-0.1-2-0.1c-3.3,0-6.4,1-9,2.8c-2.6-1.7-5.7-2.8-9-2.8c-2.2,0-4.2,0.4-6.1,1.2c-4.1-5-10.4-8.2-17.4-8.2
					c-7.5,0-14.1,3.6-18.2,9.3c-3-1.4-6.3-2.3-9.8-2.3c-6.4,0-12.2,2.7-16.3,7c-2.9-4.2-7.7-7-13.2-7c-7.4,0-13.6,5.1-15.4,11.9
					c-2.2-1.2-4.8-1.9-7.6-1.9c-8.8,0-16,7.2-16,16c0,8.8,7.2,16,16,16c3.3,0,6.3-1,8.8-2.6c2.7,5.1,8,8.6,14.2,8.6
					c6.3,0,11.7-3.6,14.3-8.9c4,3.7,9.3,5.9,15.2,5.9c4.3,0,8.4-1.2,11.8-3.3c2.9,3.8,7.5,6.3,12.7,6.3c4.5,0,8.6-1.9,11.5-4.9
					c2.9,3,7,4.9,11.5,4.9c5.7,0,10.7-3,13.5-7.4c3.2,8.4,11.4,14.4,21,14.4c7.8,0,14.7-4,18.7-10c4.1,4.3,9.9,7,16.3,7
					c12.4,0,22.5-10.1,22.5-22.5S898.9,52,886.5,52z"/>
			</g>
		</g>
		<g>
			<path class="st1" d="M949.7,283.5h-40.9v-17h40.9c10.5,0,19-8.4,19-18.7V115.2c0-10.3-8.5-18.7-19-18.7h-44.3v-17h44.3
				c20,0,36.3,16,36.3,35.7v132.7C986,267.5,969.7,283.5,949.7,283.5z"/>
		</g>
	</g>
	<g>
		<g>
			<g>
				<polygon class="st0" points="1399,71 1604,71 1604,335 1401,335 				"/>
			</g>
			<g>
				<path class="st1" d="M1604,340h-203c-2.8,0-5-2.2-5-5V5c0-2.8,2.2-5,5-5h203c2.8,0,5,2.2,5,5v330
					C1609,337.8,1606.8,340,1604,340z M1406,330h193V10h-193V330z"/>
			</g>
			<g>
				<path class="st1" d="M1584.5,52c-0.9,0-1.8,0.1-2.6,0.2c-1.2-11.3-10.7-20.2-22.4-20.2c-9.1,0-16.9,5.4-20.5,13.1
					c-0.7-0.1-1.3-0.1-2-0.1c-3.3,0-6.4,1-9,2.8c-2.6-1.7-5.7-2.8-9-2.8c-2.2,0-4.2,0.4-6.1,1.2c-4.1-5-10.4-8.2-17.4-8.2
					c-7.5,0-14.1,3.6-18.2,9.3c-3-1.4-6.3-2.3-9.8-2.3c-6.4,0-12.2,2.7-16.3,7c-2.9-4.2-7.7-7-13.2-7c-7.4,0-13.6,5.1-15.4,11.9
					c-2.2-1.2-4.8-1.9-7.6-1.9c-8.8,0-16,7.2-16,16c0,8.8,7.2,16,16,16c3.3,0,6.3-1,8.8-2.6c2.7,5.1,8,8.6,14.2,8.6
					c6.3,0,11.7-3.6,14.3-8.9c4,3.7,9.3,5.9,15.2,5.9c4.3,0,8.4-1.2,11.8-3.3c2.9,3.8,7.5,6.3,12.7,6.3c4.5,0,8.6-1.9,11.5-4.9
					c2.9,3,7,4.9,11.5,4.9c5.7,0,10.7-3,13.5-7.4c3.2,8.4,11.4,14.4,21,14.4c7.8,0,14.7-4,18.7-10c4.1,4.3,9.9,7,16.3,7
					c12.4,0,22.5-10.1,22.5-22.5S1596.9,52,1584.5,52z"/>
			</g>
		</g>
		<g>
			<path class="st1" d="M1647.7,283.5h-40.9v-17h40.9c10.5,0,19-8.4,19-18.7V115.2c0-10.3-8.5-18.7-19-18.7h-44.3v-17h44.3
				c20,0,36.3,16,36.3,35.7v132.7C1684,267.5,1667.7,283.5,1647.7,283.5z"/>
		</g>
	</g>
	<g>
		<g>
			<g>
				<polygon class="st0" points="2097,71 2302,71 2302,335 2099,335 				"/>
			</g>
			<g>
				<path class="st1" d="M2302,340h-203c-2.8,0-5-2.2-5-5V5c0-2.8,2.2-5,5-5h203c2.8,0,5,2.2,5,5v330
					C2307,337.8,2304.8,340,2302,340z M2104,330h193V10h-193V330z"/>
			</g>
			<g>
				<path class="st1" d="M2282.5,52c-0.9,0-1.8,0.1-2.6,0.2c-1.2-11.3-10.7-20.2-22.4-20.2c-9.1,0-16.9,5.4-20.5,13.1
					c-0.7-0.1-1.3-0.1-2-0.1c-3.3,0-6.4,1-9,2.8c-2.6-1.7-5.7-2.8-9-2.8c-2.2,0-4.2,0.4-6.1,1.2c-4.1-5-10.4-8.2-17.4-8.2
					c-7.5,0-14.1,3.6-18.2,9.3c-3-1.4-6.3-2.3-9.8-2.3c-6.4,0-12.2,2.7-16.3,7c-2.9-4.2-7.7-7-13.2-7c-7.4,0-13.6,5.1-15.4,11.9
					c-2.2-1.2-4.8-1.9-7.6-1.9c-8.8,0-16,7.2-16,16c0,8.8,7.2,16,16,16c3.3,0,6.3-1,8.8-2.6c2.7,5.1,8,8.6,14.2,8.6
					c6.3,0,11.7-3.6,14.3-8.9c4,3.7,9.3,5.9,15.2,5.9c4.3,0,8.4-1.2,11.8-3.3c2.9,3.8,7.5,6.3,12.7,6.3c4.5,0,8.6-1.9,11.5-4.9
					c2.9,3,7,4.9,11.5,4.9c5.7,0,10.7-3,13.5-7.4c3.2,8.4,11.4,14.4,21,14.4c7.8,0,14.7-4,18.7-10c4.1,4.3,9.9,7,16.3,7
					c12.4,0,22.5-10.1,22.5-22.5S2294.9,52,2282.5,52z"/>
			</g>
		</g>
		<g>
			<path class="st1" d="M2345.7,283.5h-40.9v-17h40.9c10.5,0,19-8.4,19-18.7V115.2c0-10.3-8.5-18.7-19-18.7h-44.3v-17h44.3
				c20,0,36.3,16,36.3,35.7v132.7C2382,267.5,2365.7,283.5,2345.7,283.5z"/>
		</g>
	</g>
	<g>
		<g>
			<g>
				<polygon class="st0" points="2795,71 3000,71 3000,335 2797,335 				"/>
			</g>
			<g>
				<path class="st1" d="M3000,340h-203c-2.8,0-5-2.2-5-5V5c0-2.8,2.2-5,5-5h203c2.8,0,5,2.2,5,5v330
					C3005,337.8,3002.8,340,3000,340z M2802,330h193V10h-193V330z"/>
			</g>
			<g>
				<path class="st1" d="M2980.5,52c-0.9,0-1.8,0.1-2.6,0.2c-1.2-11.3-10.7-20.2-22.4-20.2c-9.1,0-16.9,5.4-20.5,13.1
					c-0.7-0.1-1.3-0.1-2-0.1c-3.3,0-6.4,1-9,2.8c-2.6-1.7-5.7-2.8-9-2.8c-2.2,0-4.2,0.4-6.1,1.2c-4.1-5-10.4-8.2-17.4-8.2
					c-7.5,0-14.1,3.6-18.2,9.3c-3-1.4-6.3-2.3-9.8-2.3c-6.4,0-12.2,2.7-16.3,7c-2.9-4.2-7.7-7-13.2-7c-7.4,0-13.6,5.1-15.4,11.9
					c-2.2-1.2-4.8-1.9-7.6-1.9c-8.8,0-16,7.2-16,16c0,8.8,7.2,16,16,16c3.3,0,6.3-1,8.8-2.6c2.7,5.1,8,8.6,14.2,8.6
					c6.3,0,11.7-3.6,14.3-8.9c4,3.7,9.3,5.9,15.2,5.9c4.3,0,8.4-1.2,11.8-3.3c2.9,3.8,7.5,6.3,12.7,6.3c4.5,0,8.6-1.9,11.5-4.9
					c2.9,3,7,4.9,11.5,4.9c5.7,0,10.7-3,13.5-7.4c3.2,8.4,11.4,14.4,21,14.4c7.8,0,14.7-4,18.7-10c4.1,4.3,9.9,7,16.3,7
					c12.4,0,22.5-10.1,22.5-22.5S2992.9,52,2980.5,52z"/>
			</g>
		</g>
		<g>
			<path class="st1" d="M3043.7,283.5h-40.9v-17h40.9c10.5,0,19-8.4,19-18.7V115.2c0-10.3-8.5-18.7-19-18.7h-44.3v-17h44.3
				c20,0,36.3,16,36.3,35.7v132.7C3080,267.5,3063.7,283.5,3043.7,283.5z"/>
		</g>
	</g>
</g>
</svg>
