<svg height="512pt" viewBox="0 0 512.00044 512" width="512pt" xmlns="http://www.w3.org/2000/svg"><path d="m389.378906 241.484375c-56.765625 0-109.515625-48.84375-117.140625-104.425781-9.472656-69.0625 46.816407-134.988282 116.050781-137.0078128 65.308594-1.9101562 122.003907 52.0312498 123.675782 117.4414068 1.675781 65.496093-57.207032 123.992187-122.585938 123.992187zm0 0" fill="#ffc200"/><path d="m346.117188 512h-209.917969c-7.828125 0-14.339844-6.039062-14.949219-13.863281l-27.988281-360.738281c-.675781-8.722657 6.207031-16.195313 14.949219-16.195313h265.894531c8.726562 0 15.628906 7.460937 14.949219 16.195313l-27.988282 360.738281c-.609375 7.824219-7.121094 13.863281-14.949218 13.863281zm0 0" fill="#d7f7ff"/><path d="m374.105469 121.199219h-132.949219v390.800781h104.957031c7.828125 0 14.34375-6.039062 14.957031-13.871094l27.988282-360.730468c.667968-8.738282-6.230469-16.199219-14.953125-16.199219zm0 0" fill="#abf3ff"/><path d="m103.546875 269.960938 17.703125 228.175781c.609375 7.824219 7.121094 13.863281 14.949219 13.863281h209.917969c7.828124 0 14.339843-6.039062 14.949218-13.863281l16.738282-215.746094c-117.816407 48.605469-156.5-61.714844-274.257813-12.429687zm0 0" fill="#ffd84b"/><path d="m377.800781 282.390625-16.730469 215.738281c-.613281 7.832032-7.128906 13.871094-14.957031 13.871094h-104.957031v-235.878906c38.945312 15.269531 77.988281 30.46875 136.644531 6.269531zm0 0" fill="#ffc200"/><path d="m172.601562 363.253906-31.269531-309.71875c-1.617187-16.003906-17.648437-26.367187-32.875-21.207031l-88.652343 30.078125c-7.847657 2.660156-16.355469-1.554688-19.007813-9.417969-2.65625-7.863281 1.550781-16.394531 9.394531-19.054687l88.648438-30.078125c33.4375-11.34375 68.765625 11.386719 72.328125 46.652343l31.269531 309.722657c.835938 8.257812-5.167969 15.632812-13.40625 16.46875-8.25.832031-15.597656-5.191407-16.429688-13.445313zm0 0" fill="#60d4fd"/></svg>