<?xml version="1.0" encoding="utf-8"?>
<!-- Generator: Adobe Illustrator 21.0.0, SVG Export Plug-In . SVG Version: 6.00 Build 0)  -->
<svg version="1.1" id="Capa_1" xmlns="http://www.w3.org/2000/svg" xmlns:xlink="http://www.w3.org/1999/xlink" x="0px" y="0px"
	 viewBox="0 0 57 57" style="enable-background:new 0 0 57 57;" xml:space="preserve">
<style type="text/css">
	.st0{opacity:0.2;fill:#FFFFFF;}
	.st1{fill:#222327;}
	.st2{fill:#BF052B;}
</style>
<circle class="st0" cx="28.5" cy="28.5" r="27.6"/>
<path class="st1" d="M28.3,14.9c-3.7,0-6.7,2.8-6.7,6.2v1.7h2v-1.7c0-2.3,2.1-4.2,4.7-4.2s4.7,1.9,4.7,4.2v6.6h-7.8v1.6h-3.6v0.4
	h13.3v-8.6C34.9,17.7,31.9,14.9,28.3,14.9z"/>
<rect x="18.1" y="27.3" class="st2" width="20.8" height="15.8"/>
<path class="st1" d="M28.5,37.2L28.5,37.2c-0.8,0-1.5-0.7-1.5-1.5v-3c0-0.8,0.7-1.5,1.5-1.5l0,0c0.8,0,1.5,0.7,1.5,1.5v3
	C30,36.5,29.3,37.2,28.5,37.2z"/>
<rect x="18.1" y="40.1" class="st1" width="20.8" height="3"/>
</svg>
