<?xml version="1.0" encoding="utf-8"?>
<!-- Generator: Adobe Illustrator 21.0.0, SVG Export Plug-In . SVG Version: 6.00 Build 0)  -->
<svg version="1.1" id="Layer_1" xmlns="http://www.w3.org/2000/svg" xmlns:xlink="http://www.w3.org/1999/xlink" x="0px" y="0px"
	 viewBox="0 0 776 575" style="enable-background:new 0 0 776 575;" xml:space="preserve">
<style type="text/css">
	.st0{fill:#FC0130;stroke:#FC0130;stroke-width:7;stroke-miterlimit:10;}
	.st1{opacity:0.2;enable-background:new    ;}
	.st2{fill:#FFFFFF;}
	.st3{fill:#FC0130;stroke:#FF0000;stroke-width:5;stroke-miterlimit:10;}
	.st4{fill:#FC0130;stroke:#ED1C24;stroke-width:8;stroke-miterlimit:10;}
	.st5{fill:#16EFFD;}
	.st6{fill:#FC0130;}
	.st7{fill:#F8BA18;}
	.st8{fill:#FFE271;}
</style>
<path class="st0" d="M13.5,127.5c0,0,5.7,0.1,23-31c3.4-6.2,10.7-10.7,17-14c15.7-8.3,44.7-20.6,80-15c21.4,3.4,34.4,14,42.2,25
	c8.8,12.3,12.5,27.5,11.1,42.6c-1.8,19.3-8.4,56.4-33.4,81.4c-35,35-57,26-57,26s-7-2-8-24C87.6,198.4,86.7,124,105,93.2
	c1.6-2.7-0.7-10.2-3-12.2c-4-3.4-9.7-2.5-20.9,3.6c-6,3.3-10.7,8.5-13.5,14.8c-7.3,16.3-18.1,58.1-14.1,109.1
	c0.8,9.7-1.3,17.4,0.5,29.5c0.6,4.2,1.2,8.2,2,12c0.5,2.6,5,7.1,7.4,8.1c11.6,4.6,34.1,11.9,60.1,4.4c35-10,58-24,74-53
	c0,0,23-42,23.1-82.5c0-1.4-0.1-2.8-0.1-4.2c-0.1-8.9-2.3-50.6-37-69.3c-39-21-99-16-127-6S4,81,4,110C4,110,6.5,128.5,13.5,127.5z"
	/>
<path class="st1" d="M10.5,122.5c0,0,5.7,0.1,23-31c3.4-6.2,10.7-10.7,17-14c15.7-8.3,44.7-20.6,80-15c21.4,3.4,34.4,14,42.2,25
	c8.8,12.3,12.5,27.5,11.1,42.6c-1.8,19.3-8.4,56.4-33.4,81.4c-35,35-57,26-57,26s-7-2-8-24C84.6,193.4,83.7,119,102,88.2
	c1.6-2.7,1.1-6.1-1.3-8.1c-4-3.4-11.4-6.6-22.6-0.6c-6,3.3-10.7,8.5-13.5,14.8c-7.3,16.3-18.1,58.1-14.1,109.1
	c0.8,9.7,1.2,19.9,3,32c0.6,4.2,1.3,8.1,2.1,11.9c0.5,2.6,2.3,4.7,4.8,5.6c11.6,4.6,34.1,11.9,60.1,4.4c35-10,58-24,74-53
	c0,0,23-42,23.1-82.5c0-1.4-0.1-2.8-0.1-4.2c-0.1-8.9-2.3-50.6-37-69.3c-39-21-99-16-127-6s-50,32-50,61
	C3.5,103.5,3.5,123.5,10.5,122.5z"/>
<path class="st2" d="M7.5,122.5c0,0,5.7,0.1,23-31c3.4-6.2,10.7-10.7,17-14c15.7-8.3,44.7-20.6,80-15c21.4,3.4,34.4,14,42.2,25
	c8.8,12.3,12.5,27.5,11.1,42.6c-1.8,19.3-8.4,56.4-33.4,81.4c-35,35-57,26-57,26s-7-2-8-24C81.6,193.4,80.7,119,99,88.2
	c1.6-2.7,1.1-6.1-1.3-8.1c-4-3.4-11.4-6.6-22.6-0.6c-6,3.3-10.7,8.5-13.5,14.8c-7.3,16.3-18.1,58.1-14.1,109.1
	c0.8,9.7,1.2,19.9,3,32c0.6,4.2,1.3,8.1,2.1,11.9c0.5,2.6,2.3,4.7,4.8,5.6c11.6,4.6,34.1,11.9,60.1,4.4c35-10,58-24,74-53
	c0,0,23-42,23.1-82.5c0-1.4-0.1-2.8-0.1-4.2c-0.1-8.9-2.3-50.6-37-69.3c-39-21-99-16-127-6s-50,32-50,61
	C0.5,103.5,0.5,123.5,7.5,122.5z"/>
<ellipse transform="matrix(0.9694 -0.2455 0.2455 0.9694 -9.3689 92.6414)" class="st3" cx="366.9" cy="83.9" rx="25.3" ry="19.8"/>
<ellipse transform="matrix(0.9694 -0.2455 0.2455 0.9694 -8.6936 92.0586)" class="st2" cx="364.9" cy="80.9" rx="25.3" ry="19.8"/>
<path class="st4" d="M711.5,231.5c-3-3,2-27-3-36c0,0-4-12,0-20l18-17c0,0,3-10-3-13c0,0-18-10-31,2s-59,59-65,60s-16,13-17,15
	s-17,11-18-4s14-27,14-27s29-27,27-41c0,0-5-31-41-14c0,0-19.1,11.4-42.3,39c-0.9,1.1-2.5,1.2-3.5,0.2c-0.7-0.7-0.7-1.7-0.2-2.4
	c7.9-10.6,61.5-83.7,68-120.7c7-40-9-46-37-40s-53,54-62,99c-7.4,37-11.4,80.8-12.6,95.2c-0.3,3.1-1.9,5.9-4.5,7.5
	c-2.9,1.9-6.6,4.2-8.8,5.3c-4,2-13,0-12-13s9-51,9-51s7-25-14-29c0,0-18-5-41,43c0,0-8,15-7,5s5-34,5-34s3-19-17-15c0,0-16-2-21,40
	s-5,42-5,42s-26,23-32,13s6-68,15-90c0,0-6-14-34,5c0,0-6,25-11,43c0,0-22,15-26-5s4-37,4-37s-9-27-40,6c0,0-10,26-12,20l-2-29
	c0,0,2-7-11-5c0,0-12-3-15,19s-13,67-5,92c0,0,8,13,15,10c0,0,12,1,18-26s16-55,16-55s4-5,5,1s5,37,27,39c0,0,12,3,20-1
	c0,0-6,43,23,39s48-17,48-17s0,18,14,16s19-15,26-32s26-42,26-42s-8.3,60,1.7,68.3c0.8,0.7,1.6,1.4,2.2,2.3
	c1.6,2.2,5.6,5.6,14.1,3.4c9.4-2.4,22.5-7.8,27.7-10c1.1-0.5,2.4,0.1,2.8,1.3c0.9,3.2,3.4,8.6,10,9.6c0.5,0.1,1.6,0.4,2.4,0.5
	c3.1,0.6,11.4,0.6,26.1-25.4c18-32,44-67,50-57s-11,19-11,19s-29,29-20,52s57,13,67,6l3-2c0,0,1,21,33,21s76-8,92-20l3-27
	C759.5,213.5,714.5,234.5,711.5,231.5z M536.5,157.5c0,0,0.1-0.5,0.2-1.3c1.9-14.2,21.8-138.7,50.8-118.7c0,0,4,5-12,34
	C556.3,104.9,536.5,157.5,536.5,157.5z M668.5,239.5c-19,2-24-18-24-18c28-26,35-26,35-26C687.5,239.5,668.5,239.5,668.5,239.5z"/>
<path class="st1" d="M711.5,224.5c-3-3,2-27-3-36c0,0-4-12,0-20l18-17c0,0,3-10-3-13c0,0-18-10-31,2s-59,59-65,60s-16,13-17,15
	s-17,11-18-4s14-27,14-27s29-27,27-41c0,0-5-31-41-14c0,0-19.1,11.4-42.3,39c-0.9,1.1-2.5,1.2-3.5,0.2c-0.7-0.7-0.7-1.7-0.2-2.4
	c7.9-10.6,61.5-83.7,68-120.7c7-40-9-46-37-40s-53,54-62,99c-7.4,37-11.4,80.8-12.6,95.2c-0.3,3.1-1.9,5.9-4.5,7.5
	c-2.9,1.9-6.6,4.2-8.8,5.3c-4,2-13,0-12-13s9-51,9-51s7-25-14-29c0,0-18-5-41,43c0,0-8,15-7,5s5-34,5-34s3-19-17-15c0,0-16-2-21,40
	s-5,42-5,42s-26,23-32,13s6-68,15-90c0,0-6-14-34,5c0,0-6,25-11,43c0,0-22,15-26-5s4-37,4-37s-9-27-40,6c0,0-10,26-12,20l-2-29
	c0,0,2-7-11-5c0,0-12-3-15,19s-13,67-5,92c0,0,8,13,15,10c0,0,12,1,18-26s16-55,16-55s4-5,5,1s5,37,27,39c0,0,12,3,20-1
	c0,0-6,43,23,39s48-17,48-17s0,18,14,16s19-15,26-32s26-42,26-42s-8.3,60,1.7,68.3c0.8,0.7,1.6,1.4,2.2,2.3
	c1.6,2.2,5.6,5.6,14.1,3.4c9.4-2.4,22.5-7.8,27.7-10c1.1-0.5,2.4,0.1,2.8,1.3c0.9,3.2,3.4,8.6,10,9.6c0.5,0.1,1.6,0.4,2.4,0.5
	c3.1,0.6,11.4,0.6,26.1-25.4c18-32,44-67,50-57s-11,19-11,19s-29,29-20,52s57,13,67,6l3-2c0,0,1,21,33,21s76-8,92-20l3-27
	C759.5,206.5,714.5,227.5,711.5,224.5z M536.5,150.5c0,0,0.1-0.5,0.2-1.3c1.9-14.2,21.8-138.7,50.8-118.7c0,0,4,5-12,34
	C556.3,97.9,536.5,150.5,536.5,150.5z M668.5,232.5c-19,2-24-18-24-18c28-26,35-26,35-26C687.5,232.5,668.5,232.5,668.5,232.5z"/>
<path class="st2" d="M708.5,224.5c-3-3,2-27-3-36c0,0-4-12,0-20l18-17c0,0,3-10-3-13c0,0-18-10-31,2s-59,59-65,60s-16,13-17,15
	s-17,11-18-4s14-27,14-27s29-27,27-41c0,0-5-31-41-14c0,0-19.1,11.4-42.3,39c-0.9,1.1-2.5,1.2-3.5,0.2c-0.7-0.7-0.7-1.7-0.2-2.4
	c7.9-10.6,61.5-83.7,68-120.7c7-40-9-46-37-40s-53,54-62,99c-7.4,37-11.4,80.8-12.6,95.2c-0.3,3.1-1.9,5.9-4.5,7.5
	c-2.9,1.9-6.6,4.2-8.8,5.3c-4,2-13,0-12-13s9-51,9-51s7-25-14-29c0,0-18-5-41,43c0,0-8,15-7,5s5-34,5-34s3-19-17-15c0,0-16-2-21,40
	s-5,42-5,42s-26,23-32,13s6-68,15-90c0,0-6-14-34,5c0,0-6,25-11,43c0,0-22,15-26-5s4-37,4-37s-9-27-40,6c0,0-10,26-12,20l-2-29
	c0,0,2-7-11-5c0,0-12-3-15,19s-13,67-5,92c0,0,8,13,15,10c0,0,12,1,18-26s16-55,16-55s4-5,5,1s5,37,27,39c0,0,12,3,20-1
	c0,0-6,43,23,39s48-17,48-17s0,18,14,16s19-15,26-32s26-42,26-42s-8.3,60,1.7,68.3c0.8,0.7,1.6,1.4,2.2,2.3
	c1.6,2.2,5.6,5.6,14.1,3.4c9.4-2.4,22.5-7.8,27.7-10c1.1-0.5,2.4,0.1,2.8,1.3c0.9,3.2,3.4,8.6,10,9.6c0.5,0.1,1.6,0.4,2.4,0.5
	c3.1,0.6,11.4,0.6,26.1-25.4c18-32,44-67,50-57s-11,19-11,19s-29,29-20,52s57,13,67,6l3-2c0,0,1,21,33,21s76-8,92-20l3-27
	C756.5,206.5,711.5,227.5,708.5,224.5z M533.5,150.5c0,0,0.1-0.5,0.2-1.3c1.9-14.2,21.8-138.7,50.8-118.7c0,0,4,5-12,34
	C553.3,97.9,533.5,150.5,533.5,150.5z M665.5,232.5c-19,2-24-18-24-18c28-26,35-26,35-26C684.5,232.5,665.5,232.5,665.5,232.5z"/>
<g>
	<path class="st5" d="M375.4,528c-13.6,0-22.3-3.3-25.7-9.8c-6.4-11.8,3.1-41,8.4-55.1c-7.6,3-14.7,4.5-21,4.5
		c-16.4,0-24.2-9.8-27.5-15.6c-9.5,7.4-25.8,14.7-40.8,14.7c-8.8,0-16.5-2.5-22.8-7.2c-19.2-14.6-2.9-49.5,11.5-80.5
		c3.1-6.7,6.1-13,8.5-18.7c3.5-8.3,4.1-14.5,1.9-17.8c-1.9-2.8-4.2-7.9-7.4-7.9c-2.8,0-5,0.5-5,0.5l-10.4,1.3l2.3-5.8l8.6-21
		l6.8,0.3c0.1,0,6.1,5.4,34.2,8.1c9.4,0.9,16.1,4.4,19.7,10.2c5.7,9.5,1,21.6,0.3,23.1c-0.8,2.2-11.9,34.7-22,55.4
		c-10.6,21.8-9,22.7-4,25.8c0.7,0.5,1.5,0.7,2.4,0.7c2.3,0,5.4-1.3,8.9-3.7c5.9-4.2,10.4-9.9,13.3-16.8l38.8-93.6h48l-0.2,0.5
		c7.8-2.5,14.9-3.7,21.4-3.7c17.8,0,26,9.1,29.4,14.6c10.4-7.2,26.2-13.8,41-13.8c18.3,0,30.8,10,35.3,28.4
		c8.6,35.5-23.3,76.4-32.5,87.2l0.1,0.2L495,434c-22.6,22.2-43.7,33.4-62.6,33.4c-12,0-20.2-4.6-24.6-8c-3.9,7.4-12,24-14.8,35.7
		c-0.7,2.9-0.5,5.1,0.7,6.4c1.4,1.8,4.7,2.7,9,2.7c1.6,0,2.8-0.2,2.8-0.2l6.3-0.9l-2.8,5.6l-8.3,16.4l-1.5,0.4
		C398.6,525.6,387.3,528,375.4,528z M471.9,344c-0.9,0-1.7,0.1-2.5,0.3c-5.1,1.1-10.7,4.4-16.8,9.8c-1.9,1.6-3.5,3.9-4.4,6.4
		l-30.4,77.4c-0.3,0.7,0,1.4,0.7,1.7c1.6,0.9,4.4,2,8.1,2c8.4,0,17.7-5.7,27-16.5c1.8-2.7,29-42.9,30.7-67.8c0.2-3.4-1-6.7-3.5-9.3
		C478.6,345.4,475.3,344,471.9,344z M358.4,430.1c1.1,2,2.6,2.8,5,2.8c1.7,0,3.8-0.5,6.1-1.4c2.5-0.9,4.5-3,5.7-5.7l31.3-76.5
		c0.9-3.8,0.8-6.5-0.3-8c-0.8-0.9-2.1-1.3-4.1-1.3c-3.2,0-6.4,1.1-6.5,1.2l-2.4,0.8c-8,20.4-20.6,51.9-28.1,66.7
		c-6.9,13.6-7.4,18.7-7.3,20.3L358.4,430.1z"/>
</g>
<path class="st1" d="M526.5,335c-10-42-57-28-78-11c0,0-9-28-53-13l-7,16c0,0,21-8,16,13l-33,82.1c-1.5,3.6-4.3,6.6-7.9,8
	c-5.2,2.1-12.4,3.5-16-3.1c0,0-5-2,7-26s37-91,37-91h-43l-39.9,98c-3.2,7.8-8.4,14.6-15.2,19.5c-5.8,4.1-11.5,6.1-15.8,3.4
	c-8-5-8-9,3-32s23-59,23-59s12-28-18-31s-32,1-32,1l-6,17c0,0,23-9,9,25s-44,85-22,102c20,15.4,49.9,2,62.7-8.1
	c1.6-1.3,4.1-0.8,5,1.1c4.4,8.2,18.4,25,54.3,7c0,0-20,49-12,64c8,15,48,6,48,6l8-16c0,0-21,3-17-14s18-43,18-43s30,36,90-24
	C491.5,427,536.5,377,526.5,335z M486.5,347.6c-2,28.7-33,74.4-33,74.4c-19.8,23.5-34.8,20-41.3,16.5c-2.2-1.2-3.2-3.8-2.3-6.2
	l31.9-82.8c1.2-3.1,3.1-6,5.6-8.2c7.6-6.8,14-10,19.2-11.2C477.3,327.8,487.2,336.7,486.5,347.6z"/>
<path class="st2" d="M526.5,331.5c-10-42-57-28-78-11c0,0-9-28-53-13l-7,16c0,0,21-8,16,13l-33,82.1c-1.5,3.6-4.3,6.6-7.9,8
	c-5.2,2.1-12.4,3.5-16-3.1c0,0-5-2,7-26s37-91,37-91h-43l-39.9,98c-3.2,7.8-8.4,14.6-15.2,19.5c-5.8,4.1-11.5,6.1-15.8,3.4
	c-8-5-8-9,3-32s23-59,23-59s12-28-18-31s-32,1-32,1l-6,17c0,0,23-9,9,25s-44,85-22,102c20,15.4,49.9,2,62.7-8.1
	c1.6-1.3,4.1-0.8,5,1.1c4.4,8.2,18.4,25,54.3,7c0,0-20,49-12,64c8,15,48,6,48,6l8-16c0,0-21,3-17-14s18-43,18-43s30,36,90-24
	C491.5,423.5,536.5,373.5,526.5,331.5z M486.5,344.1c-2,28.7-33,74.4-33,74.4c-19.8,23.5-34.8,20-41.3,16.5
	c-2.2-1.2-3.2-3.8-2.3-6.2l31.9-82.8c1.2-3.1,3.1-6,5.6-8.2c7.6-6.8,14-10,19.2-11.2C477.3,324.3,487.2,333.2,486.5,344.1z"/>
<g>
	<path class="st2" d="M623.5,300.5l-72.4-15.2c-1.6-0.3-3,1.2-2.4,2.7l36.8,111.5l-48.7-121.8c-0.5-1.3,0.7-2.6,2-2.2L623.5,300.5z"
		/>
	<path class="st2" d="M709.5,327.5l-114.9,91.9c-3.3,2.6-5.5,6.3-6.4,10.4l-15.7,74.6c0,0-4.4,30.7,20.6,48.6c1,0.7,0.3,2.3-0.9,2
		l-61.4-13.3c-0.3-0.1-0.4,0.4-0.1,0.4l80.7,23.7c2,0.6,3.3-2.1,1.6-3.3c-13.4-9.3-34.8-26.7-35.4-43.2
		c-0.8-20.3,13.4-72.2,17.7-87.6c0.8-2.9,2.4-5.4,4.6-7.4L709.5,327.5z"/>
	<path class="st2" d="M682.4,322.4l2.5,2.5c0.9,0.9,2.5,1,3.5,0.2l24.9-19.7c1.3-1,3.1-0.8,4.2,0.4l23,26.5c1.1,1.3,3.1,1.5,4.5,0.4
		l1.3-1.1c1.2-1,1.4-2.9,0.3-4.1l-27.8-32.2c-1.3-1.5-3.5-1.7-5-0.5l-31.2,24.3C681.5,319.7,681.4,321.4,682.4,322.4z"/>
	<path class="st5" d="M562.8,307.8c-0.4-1.3,1.1-2.2,2.1-1.4c7.1,5.7,23.8,17.7,37.6,16.1c17.4-1.9,53.6-20.8,81.3,8.9
		c1.5,1.6,1.4,4.2-0.3,5.6l-79.7,68.4c-4.4,3.8-11.2,1.8-12.9-3.8L562.8,307.8z"/>
	<path class="st2" d="M585.5,351.5l14,44C599.5,395.5,587.5,379.5,585.5,351.5z"/>
	<path class="st2" d="M616.5,374.5l7,7l-4-7l37-31C656.5,343.5,623.5,362.5,616.5,374.5z"/>
</g>
<g>
	<path class="st2" d="M45.5,326.5c0,0,5.7,33.2,53.2,40.5c2.3,0.4,4.3,1.9,5.2,4c4.4,10.7,20.3,42.4,53.2,43.5
		c2.7,0.1,5,1.9,5.7,4.5l20.8,77.5c0,0,8,31-3,45c-9.4,12-19.6,18.8-22.3,20.6c-0.7,0.4-1.3,1-1.7,1.8c-0.5,0.9,0.2,2.7,2,2.7
		c3,0,81-23,81-23s-71,18-71,16c0-1.4,5.5-4.5,8-7c5-5,16-18,15-34c-1-16.1-1-19-7-43c-4.6-18.3-13.2-49.3-17-63.1
		c-1-3.5-4.5-5.8-8.1-5.2c-10.6,1.8-32.9,0-50.4-39.1c-1.5-3.4-4.7-5.8-8.4-6.3C88.1,360.3,59.4,353.5,45.5,326.5z"/>
	<path class="st2" d="M158.9,294.6l61.9-18.7c2.8-0.8,5.6,0.9,6.3,3.7c2.4,10.3,3.8,34.9-26.9,60c-2.3,1.9-3.5,4.7-3.3,7.6
		c0.6,10,0.3,33.5-12.4,47.4c-0.6,0.7-1.7,0-1.3-0.9c3.6-8.7,11.7-30.8,8-48.5c-0.8-3.6,0.4-7.4,3.2-9.8c3.6-3.1,7.7-7,12.1-11.8
		c4-4.3,6.7-7.3,9-11.1c2.3-3.8,6.4-12.3,5.5-26.2c-0.2-2.5-2.6-4.3-5-3.7l-56.8,13.1C158.5,295.8,158.2,294.8,158.9,294.6z"/>
	<path class="st6" d="M64.2,341.1c5.2,4.5,18,13.3,41,15.1c3.2,0.3,6.1,2.2,7.4,5.2c4.1,8.8,14.4,27.9,24.9,33.1c14,7,18,8,30,4
		c9.8-3.3,17-9,18-29c0.6-11.8-1.5-20.5-2.2-25.6c-0.4-3.3,0.9-6.6,3.5-8.7c7.5-6.1,22.5-19.7,26-32.4c0.4-1.5-1.3-2.8-2.7-1.9
		c-9.5,6.3-37,22.7-60.6,18.7c-28.2-4.9-54.5-12.6-85.4,16.5C62.6,337.4,62.6,339.8,64.2,341.1z"/>
	<circle class="st6" cx="59.5" cy="312.5" r="14"/>
	<path class="st7" d="M11.5,322.5c0,0,5-7,12-5c0,0,3-8,12-9c0,0,3-8,12-10c0,0,1-9,10-12c0,0,1-8,8-11c0,0-1-9,6-12l-40,20
		L11.5,322.5z"/>
	<path class="st2" d="M177.5,345.5c0,0,7,34-12,47C165.5,392.5,189.5,386.5,177.5,345.5z"/>
	<polygon class="st8" points="32,284 18,311 29,293 24,312 32,290 34,307 35,289 45,297 37,287 54,286 39,284 62,276 40,282 65,268 
			"/>
	<path class="st2" d="M67.1,303.4c1.2,2.2,1.9,4.8,1.9,7.6c0,5.8-3.1,10.9-7.7,13.7c5.6-1.3,9.7-6.2,9.7-12.2
		C71,308.9,69.5,305.7,67.1,303.4z"/>
</g>
</svg>
