<?xml version="1.0" encoding="utf-8"?>
<!-- Generator: Adobe Illustrator 21.0.0, SVG Export Plug-In . SVG Version: 6.00 Build 0)  -->
<svg version="1.1" id="Layer_1" xmlns="http://www.w3.org/2000/svg" xmlns:xlink="http://www.w3.org/1999/xlink" x="0px" y="0px"
	 viewBox="0 0 624.6 520.5" style="enable-background:new 0 0 624.6 520.5;" xml:space="preserve">
<style type="text/css">
	.st0{opacity:0.1;fill:#12141B;}
	.st1{fill:#FFFFFF;}
	.st2{fill:none;stroke:#FFFFFF;stroke-width:15;stroke-linecap:round;stroke-linejoin:round;}
	.st3{fill:none;stroke:#FFFFFF;stroke-width:15;stroke-linecap:round;stroke-linejoin:round;stroke-dasharray:51.1273,51.1273;}
</style>
<g>
	<path class="st0" d="M269.1,520.5h331c16.6,0,28.4-16.1,23.4-31.9l-80.1-253.5c-3.2-10.2-12.7-17.1-23.4-17.1H269.1h86.5H104.7
		c-10.7,0-20.2,6.9-23.4,17.1L1.2,488.6c-5,15.8,6.8,31.9,23.4,31.9h331"/>
	<path class="st1" d="M311.4,0c-73.5,0.5-133.5,60.5-134,134c-0.2,30.4,9.6,58.4,26.3,81.1c9.4,12.7,17.8,26.1,25.8,39.8l54.2,93.7
		c12.8,22.1,44.8,22.1,57.6,0l50.5-87.4c9.8-16.9,20.5-33.2,31.6-49.2c15.2-21.8,24-48.3,24-76.9C447.3,60.1,386.4-0.5,311.4,0z
		 M312.3,193.5c-30.9,0-56-25.1-56-56s25.1-56,56-56s56,25.1,56,56S343.2,193.5,312.3,193.5z"/>
	<g>
		<g>
			<path class="st2" d="M92.8,456c0,0,1-10.3,6.9-24"/>
			<path class="st3" d="M130.5,391.9c29.5-23.1,81.8-38.3,174.5-14.8c115.9,29.5,164.9-3.5,185.6-36.5"/>
			<path class="st2" d="M501.3,317.5c4.4-14,4.5-24.5,4.5-24.5"/>
		</g>
	</g>
</g>
</svg>
