<?xml version="1.0" encoding="utf-8"?>
<!-- Generator: Adobe Illustrator 21.0.0, SVG Export Plug-In . SVG Version: 6.00 Build 0)  -->
<svg version="1.1" id="Layer_1" xmlns:ev="http://www.w3.org/2001/xml-events"
	 xmlns="http://www.w3.org/2000/svg" xmlns:xlink="http://www.w3.org/1999/xlink" x="0px" y="0px" viewBox="0 0 264 264"
	 style="enable-background:new 0 0 264 264;" xml:space="preserve">
<style type="text/css">
	.st0{opacity:0.5;}
	.st1{fill:#FFFFFF;}
</style>
<g class="st0">
	<polygon class="st1" points="61.9,97.7 55.8,97.7 55.8,103.8 55.8,109.9 61.9,109.9 61.9,103.8 	"/>
	<path class="st1" d="M68,73.3h6.1h6.1h6.1h6.1h6.1v-6.1v-6.1V55v-6.1v-6.1v-6.1v-6.1h-6.1h-6.1h-6.1h-6.1H68h-6.1h-6.1v6.1v6.1v6.1
		V55v6.1v6.1v6.1h6.1H68z M61.9,61.1V55v-6.1v-6.1v-6.1H68h6.1h6.1h6.1h6.1v6.1v6.1V55v6.1v6.1h-6.1h-6.1h-6.1H68h-6.1V61.1z"/>
	<rect x="61.9" y="109.9" class="st1" width="6.1" height="6.1"/>
	<polygon class="st1" points="80.2,61.1 86.3,61.1 86.3,55 86.3,48.9 86.3,42.8 80.2,42.8 74.1,42.8 68,42.8 68,48.9 68,55 68,61.1 
		74.1,61.1 	"/>
	<polygon class="st1" points="74.1,79.4 74.1,85.5 80.2,85.5 86.3,85.5 86.3,79.4 80.2,79.4 	"/>
	<polygon class="st1" points="74.1,122.1 68,122.1 61.9,122.1 61.9,128.2 61.9,134.2 68,134.2 74.1,134.2 80.2,134.2 80.2,128.2 
		80.2,122.1 80.2,116 74.1,116 	"/>
	<polygon class="st1" points="74.1,152.5 68,152.5 68,158.6 68,164.7 68,170.8 74.1,170.8 80.2,170.8 86.3,170.8 86.3,164.7 
		86.3,158.6 86.3,152.5 80.2,152.5 	"/>
	<polygon class="st1" points="86.3,103.8 86.3,109.9 92.4,109.9 98.5,109.9 104.6,109.9 104.6,103.8 104.6,97.7 98.5,97.7 
		98.5,103.8 92.4,103.8 92.4,97.7 98.5,97.7 98.5,91.6 92.4,91.6 86.3,91.6 80.2,91.6 80.2,97.7 74.1,97.7 74.1,91.6 68,91.6 
		68,85.5 68,79.4 61.9,79.4 55.8,79.4 55.8,85.5 61.9,85.5 61.9,91.6 61.9,97.7 68,97.7 68,103.8 68,109.9 74.1,109.9 80.2,109.9 
		80.2,103.8 	"/>
	<rect x="80.2" y="109.9" class="st1" width="6.1" height="6.1"/>
	<path class="st1" d="M86.3,140.3h-6.1h-6.1H68h-6.1h-6.1v6.1v6.1v6.1v6.1v6.1v6.1v6.1h6.1H68h6.1h6.1h6.1h6.1h6.1v-6.1v-6.1v-6.1
		v-6.1v-6.1v-6.1v-6.1h-6.1H86.3z M92.4,152.5v6.1v6.1v6.1v6.1h-6.1h-6.1h-6.1H68h-6.1v-6.1v-6.1v-6.1v-6.1v-6.1H68h6.1h6.1h6.1h6.1
		V152.5z"/>
	<rect x="92.4" y="79.4" class="st1" width="6.1" height="6.1"/>
	<polygon class="st1" points="98.5,122.1 98.5,116 92.4,116 86.3,116 86.3,122.1 86.3,128.2 92.4,128.2 92.4,122.1 	"/>
	<rect x="92.4" y="128.2" class="st1" width="6.1" height="6.1"/>
	<rect x="98.5" y="122.1" class="st1" width="6.1" height="6.1"/>
	<polygon class="st1" points="104.6,97.7 110.7,97.7 116.8,97.7 116.8,91.6 110.7,91.6 110.7,85.5 104.6,85.5 98.5,85.5 98.5,91.6 
		104.6,91.6 	"/>
	<rect x="104.6" y="116" class="st1" width="6.1" height="6.1"/>
	<polygon class="st1" points="110.7,128.2 104.6,128.2 104.6,134.2 104.6,140.3 110.7,140.3 110.7,134.2 	"/>
	<polygon class="st1" points="104.6,176.9 104.6,183 110.7,183 110.7,176.9 110.7,170.8 104.6,170.8 	"/>
	<rect x="110.7" y="42.8" class="st1" width="6.1" height="6.1"/>
	<rect x="110.7" y="61.1" class="st1" width="6.1" height="6.1"/>
	<polygon class="st1" points="116.8,79.4 116.8,73.3 110.7,73.3 110.7,67.2 104.6,67.2 104.6,73.3 104.6,79.4 110.7,79.4 
		110.7,85.5 116.8,85.5 	"/>
	<rect x="116.8" y="67.2" class="st1" width="6.1" height="6.1"/>
	<rect x="116.8" y="85.5" class="st1" width="6.1" height="6.1"/>
	<polygon class="st1" points="116.8,122.1 122.9,122.1 122.9,116 122.9,109.9 122.9,103.8 116.8,103.8 110.7,103.8 110.7,109.9 
		110.7,116 116.8,116 	"/>
	<polygon class="st1" points="129,146.4 122.9,146.4 116.8,146.4 116.8,140.3 110.7,140.3 110.7,146.4 110.7,152.5 104.6,152.5 
		104.6,158.6 104.6,164.7 110.7,164.7 110.7,158.6 116.8,158.6 116.8,152.5 122.9,152.5 122.9,158.6 129,158.6 129,152.5 	"/>
	<rect x="129" y="91.6" class="st1" width="6.1" height="6.1"/>
	<rect x="129" y="109.9" class="st1" width="6.1" height="6.1"/>
	<polygon class="st1" points="135,146.4 135,152.5 135,158.6 129,158.6 129,164.7 135,164.7 135,170.8 129,170.8 129,164.7 
		122.9,164.7 116.8,164.7 116.8,170.8 116.8,176.9 116.8,183 122.9,183 129,183 135,183 141.1,183 141.1,176.9 141.1,170.8 
		141.1,164.7 141.1,158.6 141.1,152.5 141.1,146.4 147.2,146.4 147.2,140.3 141.1,140.3 135,140.3 129,140.3 129,146.4 	"/>
	<polygon class="st1" points="159.4,42.8 159.4,36.7 153.3,36.7 153.3,42.8 153.3,48.9 159.4,48.9 	"/>
	<rect x="153.3" y="55" class="st1" width="6.1" height="6.1"/>
	<rect x="165.5" y="79.4" class="st1" width="6.1" height="6.1"/>
	<rect x="165.5" y="140.3" class="st1" width="6.1" height="6.1"/>
	<rect x="177.7" y="85.5" class="st1" width="6.1" height="6.1"/>
	<polygon class="st1" points="183.8,42.8 177.7,42.8 177.7,48.9 177.7,55 177.7,61.1 183.8,61.1 189.9,61.1 196,61.1 196,55 
		196,48.9 196,42.8 189.9,42.8 	"/>
	<polygon class="st1" points="189.9,85.5 189.9,91.6 189.9,97.7 183.8,97.7 183.8,103.8 189.9,103.8 196,103.8 196,97.7 196,91.6 
		202.1,91.6 202.1,85.5 196,85.5 	"/>
	<rect x="189.9" y="140.3" class="st1" width="6.1" height="6.1"/>
	<path class="st1" d="M196,116h-6.1v-6.1h-6.1h-6.1v6.1h6.1v6.1v6.1h-6.1h-6.1v-6.1V116h-6.1v-6.1h-6.1v-6.1h6.1v6.1h6.1v-6.1v-6.1
		h6.1v-6.1h-6.1h-6.1h-6.1v6.1h-6.1v-6.1v-6.1h6.1v-6.1v-6.1v-6.1h-6.1v6.1v6.1h-6.1v-6.1v-6.1v-6.1V55v-6.1h-6.1V55H135H129v-6.1
		v-6.1h6.1v6.1h6.1v-6.1v-6.1v-6.1H135v6.1H129v-6.1h-6.1h-6.1h-6.1h-6.1v6.1h6.1h6.1h6.1v6.1v6.1h-6.1V55v6.1h6.1v6.1h6.1v-6.1h6.1
		v6.1h6.1v6.1v6.1H135v-6.1v-6.1H129v6.1v6.1v6.1h6.1h6.1v6.1v6.1v6.1H135v6.1h6.1h6.1v6.1h-6.1v6.1H135H129v6.1h-6.1v6.1h-6.1v6.1
		h6.1h6.1v-6.1h6.1v-6.1h6.1h6.1v-6.1h6.1v6.1h-6.1v6.1h6.1v6.1v6.1v6.1h-6.1v6.1v6.1h6.1h6.1v6.1v6.1h-6.1v6.1h6.1h6.1h6.1h6.1h6.1
		h6.1v-6.1h-6.1h-6.1h-6.1h-6.1v-6.1v-6.1h6.1v-6.1h6.1h6.1v6.1h-6.1h-6.1v6.1h6.1h6.1h6.1v6.1h6.1h6.1v6.1h6.1v-6.1v-6.1v-6.1v-6.1
		v-6.1h-6.1v6.1H196v6.1h-6.1v-6.1v-6.1v-6.1h-6.1v-6.1v-6.1h6.1h6.1v6.1h6.1v6.1h6.1v-6.1v-6.1h-6.1v-6.1H196v-6.1h6.1h6.1V116
		h-6.1v-6.1H196V116z M159.4,122.1h6.1v6.1h-6.1V122.1z M177.7,140.3v6.1v6.1h-6.1h-6.1h-6.1v-6.1v-6.1v-6.1h6.1h6.1h6.1V140.3z"/>
	<path class="st1" d="M202.1,30.6H196h-6.1h-6.1h-6.1h-6.1h-6.1v6.1v6.1v6.1V55v6.1v6.1v6.1h6.1h6.1h6.1h6.1h6.1h6.1h6.1v-6.1v-6.1
		V55v-6.1v-6.1v-6.1v-6.1H202.1z M202.1,42.8v6.1V55v6.1v6.1H196h-6.1h-6.1h-6.1h-6.1v-6.1V55v-6.1v-6.1v-6.1h6.1h6.1h6.1h6.1h6.1
		V42.8z"/>
	<rect x="202.1" y="79.4" class="st1" width="6.1" height="6.1"/>
	<polygon class="st1" points="202.1,103.8 202.1,109.9 208.2,109.9 208.2,103.8 208.2,97.7 208.2,91.6 202.1,91.6 202.1,97.7 	"/>
</g>
<g>
	<path class="st1" d="M222.3,0h-41.7v15.3h35.5c4.1,0,7.5,3.3,7.5,7.5v35.8h15.3v-42C238.8,7.4,231.4,0,222.3,0z"/>
	<path class="st1" d="M223.5,190.9c0,4.1-3.3,7.5-7.5,7.5h-35.5v15.3h41.7c9.1,0,16.5-7.4,16.5-16.5v-41.5h-15.3V190.9z"/>
	<path class="st1" d="M25.2,16.5v42h15.3V22.8c0-4.1,3.3-7.5,7.5-7.5h35.5V0H41.7C32.6,0,25.2,7.4,25.2,16.5z"/>
	<path class="st1" d="M40.5,190.9v-35.2H25.2v41.5c0,9.1,7.4,16.5,16.5,16.5h41.7v-15.3H47.9C43.8,198.3,40.5,195,40.5,190.9z"/>
</g>
<g>
	<path class="st1" d="M42.4,263.9l-0.9-2.2h-4.7l-0.9,2.2h-2.8l4.9-10.5h2.2l4.9,10.5H42.4z M37.7,259.6h2.9l-1.4-3.4L37.7,259.6z"
		/>
	<path class="st1" d="M45.8,253.3h5.1c1.2,0,2.1,0.3,2.7,0.9c0.6,0.6,1,1.4,1,2.5c0,1-0.3,1.9-1,2.5c-0.7,0.6-1.6,0.9-2.7,0.9h-2.3
		v3.8h-2.7V253.3z M50.5,258c0.5,0,0.9-0.1,1.1-0.3s0.4-0.5,0.4-1c0-0.4-0.1-0.8-0.4-1s-0.6-0.3-1.1-0.3h-2v2.6H50.5z"/>
	<path class="st1" d="M55.9,253.3H61c1.2,0,2.1,0.3,2.7,0.9c0.6,0.6,1,1.4,1,2.5c0,1-0.3,1.9-1,2.5c-0.7,0.6-1.6,0.9-2.7,0.9h-2.3
		v3.8h-2.7V253.3z M60.6,258c0.5,0,0.9-0.1,1.1-0.3s0.4-0.5,0.4-1c0-0.4-0.1-0.8-0.4-1s-0.6-0.3-1.1-0.3h-2v2.6H60.6z"/>
	<path class="st1" d="M67.1,262.8c-0.8-0.8-1.2-1.9-1.2-3.4v-6.1h2.7v6.2c0,0.8,0.2,1.3,0.5,1.7c0.3,0.4,0.8,0.6,1.5,0.6
		s1.1-0.2,1.5-0.6c0.3-0.4,0.5-1,0.5-1.7v-6.2h2.7v6.1c0,1.5-0.4,2.6-1.2,3.4c-0.8,0.8-2,1.2-3.5,1.2C69,264,67.9,263.6,67.1,262.8z
		"/>
	<path class="st1" d="M86.8,253.3l-4.4,5.8v4.7h-2.7v-4.7l-4.4-5.8h3.1L81,257l2.7-3.7H86.8z"/>
	<path class="st1" d="M86.8,263.9v-10.5h7.5v2.1h-4.8v2H94v2.1h-4.5v2.2h4.8v2.1H86.8z"/>
	<path class="st1" d="M105.2,263.9h-3l-1.8-3.4c-0.2-0.4-0.6-0.6-1.1-0.6h-0.8v3.9h-2.7v-10.5h5c1.3,0,2.2,0.3,2.9,0.8
		c0.6,0.6,1,1.4,1,2.4c0,0.8-0.2,1.5-0.7,2c-0.4,0.6-1.1,0.9-1.9,1.1c0.6,0.1,1.1,0.5,1.4,1.2L105.2,263.9z M101.6,257.6
		c0.3-0.2,0.4-0.5,0.4-0.9c0-0.4-0.1-0.8-0.4-0.9c-0.3-0.2-0.7-0.3-1.3-0.3h-1.9v2.4h1.9C100.9,257.9,101.3,257.8,101.6,257.6z"/>
	<path class="st1" d="M110.5,253.3h5.1c1.2,0,2.1,0.3,2.7,0.9c0.6,0.6,1,1.4,1,2.5c0,1-0.3,1.9-1,2.5c-0.7,0.6-1.6,0.9-2.7,0.9h-2.3
		v3.8h-2.7V253.3z M115.3,258c0.5,0,0.9-0.1,1.1-0.3s0.4-0.5,0.4-1c0-0.4-0.1-0.8-0.4-1s-0.6-0.3-1.1-0.3h-2v2.6H115.3z"/>
	<path class="st1" d="M122.9,263.3c-0.8-0.4-1.4-1.1-1.8-1.9c-0.4-0.8-0.6-1.8-0.6-2.9s0.2-2,0.6-2.9c0.4-0.8,1-1.4,1.8-1.9
		c0.8-0.4,1.7-0.7,2.8-0.7c1.1,0,2,0.2,2.8,0.7c0.8,0.4,1.4,1.1,1.8,1.9c0.4,0.8,0.6,1.8,0.6,2.9s-0.2,2-0.6,2.9
		c-0.4,0.8-1,1.4-1.8,1.9c-0.8,0.4-1.7,0.7-2.8,0.7C124.6,264,123.7,263.8,122.9,263.3z M127.5,261.1c0.4-0.6,0.7-1.4,0.7-2.5
		s-0.2-1.9-0.7-2.4c-0.5-0.6-1.1-0.8-1.9-0.8c-0.8,0-1.4,0.3-1.9,0.8c-0.4,0.6-0.7,1.4-0.7,2.5s0.2,1.9,0.7,2.5
		c0.4,0.6,1.1,0.8,1.9,0.8C126.5,261.9,127.1,261.6,127.5,261.1z"/>
	<path class="st1" d="M133.7,262.8c-0.8-0.8-1.2-1.9-1.2-3.4v-6.1h2.7v6.2c0,0.8,0.2,1.3,0.5,1.7c0.3,0.4,0.8,0.6,1.5,0.6
		c0.6,0,1.1-0.2,1.5-0.6c0.3-0.4,0.5-1,0.5-1.7v-6.2h2.7v6.1c0,1.5-0.4,2.6-1.2,3.4c-0.8,0.8-2,1.2-3.5,1.2
		C135.6,264,134.5,263.6,133.7,262.8z"/>
	<path class="st1" d="M153.1,263.9h-3l-1.8-3.4c-0.2-0.4-0.6-0.6-1.1-0.6h-0.8v3.9h-2.7v-10.5h5c1.3,0,2.2,0.3,2.9,0.8
		c0.6,0.6,1,1.4,1,2.4c0,0.8-0.2,1.5-0.7,2c-0.4,0.6-1.1,0.9-1.9,1.1c0.6,0.1,1.1,0.5,1.4,1.2L153.1,263.9z M149.6,257.6
		c0.3-0.2,0.4-0.5,0.4-0.9c0-0.4-0.1-0.8-0.4-0.9s-0.7-0.3-1.3-0.3h-1.9v2.4h1.9C148.9,257.9,149.3,257.8,149.6,257.6z"/>
	<path class="st1" d="M160,263.7c-0.8-0.2-1.4-0.5-1.9-0.8l0.9-1.9c0.5,0.3,1,0.6,1.6,0.7c0.6,0.2,1.2,0.3,1.7,0.3
		c0.6,0,1.1-0.1,1.4-0.2s0.5-0.4,0.5-0.7c0-0.3-0.1-0.5-0.4-0.7c-0.3-0.2-0.8-0.3-1.6-0.5c-1-0.2-1.8-0.5-2.3-0.7
		c-0.6-0.3-0.9-0.6-1.2-1c-0.2-0.4-0.3-0.9-0.3-1.4c0-0.6,0.2-1.2,0.5-1.7c0.4-0.5,0.9-0.9,1.5-1.2c0.7-0.3,1.4-0.4,2.3-0.4
		c0.8,0,1.5,0.1,2.2,0.3c0.7,0.2,1.3,0.5,1.7,0.8l-0.8,1.9c-1-0.7-2-1-3-1c-0.5,0-0.9,0.1-1.2,0.3s-0.5,0.5-0.5,0.8
		c0,0.2,0.1,0.3,0.2,0.5s0.3,0.2,0.6,0.4c0.3,0.1,0.7,0.2,1.3,0.4c1,0.2,1.7,0.5,2.3,0.8c0.5,0.3,0.9,0.6,1.2,1
		c0.2,0.4,0.3,0.9,0.3,1.4c0,1-0.4,1.8-1.2,2.4c-0.8,0.6-1.9,0.9-3.4,0.9C161.5,264,160.7,263.9,160,263.7z"/>
	<path class="st1" d="M170.7,263.3c-0.8-0.4-1.4-1.1-1.9-1.9c-0.4-0.8-0.6-1.8-0.6-2.8s0.2-2,0.6-2.8c0.4-0.8,1.1-1.4,1.9-1.9
		c0.8-0.4,1.8-0.7,2.9-0.7c0.7,0,1.4,0.1,2,0.3s1.2,0.5,1.6,0.8l-0.9,1.9c-0.9-0.6-1.8-0.9-2.7-0.9c-0.9,0-1.5,0.3-2,0.8
		c-0.5,0.5-0.7,1.3-0.7,2.4s0.2,1.9,0.7,2.4c0.5,0.5,1.1,0.8,2,0.8c0.9,0,1.8-0.3,2.7-0.9l0.9,1.9c-0.4,0.3-0.9,0.6-1.6,0.8
		s-1.3,0.3-2,0.3C172.4,264,171.5,263.8,170.7,263.3z"/>
	<path class="st1" d="M186.4,263.9l-0.9-2.2h-4.7l-0.9,2.2h-2.8l4.9-10.5h2.2l4.9,10.5H186.4z M181.7,259.6h2.9l-1.4-3.4
		L181.7,259.6z"/>
	<path class="st1" d="M196.6,253.3h2.6v10.5h-2l-4.8-6v6h-2.6v-10.5h2l4.8,6V253.3z"/>
	<path class="st1" d="M207.9,253.3h2.6v10.5h-2l-4.8-6v6h-2.6v-10.5h2l4.8,6V253.3z"/>
	<path class="st1" d="M212.4,263.9v-10.5h7.5v2.1H215v2h4.5v2.1H215v2.2h4.8v2.1H212.4z"/>
	<path class="st1" d="M230.7,263.9h-3l-1.8-3.4c-0.2-0.4-0.6-0.6-1.1-0.6H224v3.9h-2.7v-10.5h5c1.3,0,2.2,0.3,2.9,0.8
		c0.6,0.6,1,1.4,1,2.4c0,0.8-0.2,1.5-0.7,2c-0.4,0.6-1.1,0.9-1.9,1.1c0.6,0.1,1.1,0.5,1.4,1.2L230.7,263.9z M227.2,257.6
		c0.3-0.2,0.4-0.5,0.4-0.9c0-0.4-0.1-0.8-0.4-0.9s-0.7-0.3-1.3-0.3H224v2.4h1.9C226.5,257.9,226.9,257.8,227.2,257.6z"/>
</g>
</svg>
