<?xml version="1.0" encoding="utf-8"?>
<!-- Generator: Adobe Illustrator 21.0.0, SVG Export Plug-In . SVG Version: 6.00 Build 0)  -->
<svg version="1.1" id="Layer_1" xmlns="http://www.w3.org/2000/svg" xmlns:xlink="http://www.w3.org/1999/xlink" x="0px" y="0px"
	 viewBox="0 0 86.6 82.4" style="enable-background:new 0 0 86.6 82.4;" xml:space="preserve">
<style type="text/css">
	.st0{fill:#FFFFFF;}
</style>
<g>
	<path class="st0" d="M43.5,9.4l9.9,20.3l1,2l2.2,0.3l21,2.5L61.2,49.5L59.6,51l0.5,2.2l4.3,21.1L45,62.9L43,61.7l-2,1.2L22.1,74.4
		L26,53.1l0.4-2.1l-1.6-1.5L9,34.5L31.2,32l2.3-0.3l0.9-2.1L43.5,9.4 M43.3,0L30.8,28L0,31.5l22,20.9l-5.5,30l26.4-16l27.1,16
		l-6.2-30l22.7-20.9L56.9,28L43.3,0L43.3,0z"/>
</g>
</svg>
