<?xml version="1.0" encoding="utf-8"?>
<!-- Generator: Adobe Illustrator 21.0.0, SVG Export Plug-In . SVG Version: 6.00 Build 0)  -->
<svg version="1.1" id="Layer_1" xmlns="http://www.w3.org/2000/svg" xmlns:xlink="http://www.w3.org/1999/xlink" x="0px" y="0px"
	 viewBox="0 0 800 800" style="enable-background:new 0 0 800 800;" xml:space="preserve">
<style type="text/css">
	.st0{fill:#CCCCCC;}
	.st1{opacity:0.3;}
</style>
<g>
	<circle class="st0" cx="400" cy="400" r="392"/>
</g>
<g class="st1">
	<path d="M400,198.5c44.8,0,81.2,36.4,81.2,81.2s-36.4,81.2-81.2,81.2s-81.2-36.4-81.2-81.2S355.2,198.5,400,198.5 M400,176.5
		c-57,0-103.2,46.2-103.2,103.2S343,382.9,400,382.9s103.2-46.2,103.2-103.2S457,176.5,400,176.5L400,176.5z"/>
	<path d="M400,433.5c18.1,0,35.9,3.5,52.9,10.5c16.6,6.8,32,16.8,45.9,29.6c28.3,26.1,48.7,62.9,57.4,103.7c1.7,8-1.8,13.9-4,16.6
		c-3.9,4.8-9.7,7.6-15.9,7.6H263.8c-6.2,0-12-2.8-15.9-7.6c-2.2-2.8-5.7-8.6-4-16.6c8.7-40.8,29-77.6,57.4-103.7
		c13.9-12.8,29.4-22.7,45.9-29.6C364.1,437.1,381.9,433.5,400,433.5 M400,411.5c-85.9,0-158.1,68.6-177.7,161.2
		c-5.6,26.2,14.7,50.8,41.5,50.8h272.4c26.8,0,47.1-24.6,41.5-50.8C558.1,480.2,485.9,411.5,400,411.5L400,411.5z"/>
</g>
</svg>
