<?xml version="1.0" encoding="utf-8"?>
<!-- Generator: Adobe Illustrator 21.0.0, SVG Export Plug-In . SVG Version: 6.00 Build 0)  -->
<svg version="1.1" id="Layer_1" xmlns="http://www.w3.org/2000/svg" xmlns:xlink="http://www.w3.org/1999/xlink" x="0px" y="0px"
	 viewBox="0 0 3080 379.9" style="enable-background:new 0 0 3080 379.9;" xml:space="preserve">
<style type="text/css">
	.st0{fill:#F4B22F;}
	.st1{fill:#FFFFFF;}
	.st2{display:none;}
	.st3{display:inline;fill:#F4B22F;}
	.st4{display:inline;fill:#FFFFFF;}
</style>
<g>
	<g>
		<g>
			<g>
				<polygon class="st0" points="3,49.9 208,49.9 208,374.9 5,374.9 				"/>
			</g>
			<g>
				<path class="st1" d="M208,379.9H5c-2.8,0-5-2.2-5-5v-330c0-2.8,2.2-5,5-5h203c2.8,0,5,2.2,5,5v330
					C213,377.7,210.8,379.9,208,379.9z M10,369.9h193v-320H10V369.9z"/>
			</g>
			<g>
				<path class="st1" d="M188.5,25.9c-0.9,0-1.8,0.1-2.6,0.2c-1.2-11.3-10.7-20.2-22.4-20.2c-9.1,0-16.9,5.4-20.5,13.1
					c-0.7-0.1-1.3-0.1-2-0.1c-3.3,0-6.4,1-9,2.8c-2.6-1.7-5.7-2.8-9-2.8c-2.2,0-4.2,0.4-6.1,1.2c-4.1-5-10.4-8.2-17.4-8.2
					c-7.5,0-14.1,3.6-18.2,9.3c-3-1.4-6.3-2.3-9.8-2.3c-6.4,0-12.2,2.7-16.3,7c-2.9-4.2-7.7-7-13.2-7c-7.4,0-13.6,5.1-15.4,11.9
					c-2.2-1.2-4.8-1.9-7.6-1.9c-8.8,0-16,7.2-16,16s7.2,16,16,16c3.3,0,6.3-1,8.8-2.6c2.7,5.1,8,8.6,14.2,8.6
					c6.3,0,11.7-3.6,14.3-8.9c4,3.7,9.3,5.9,15.2,5.9c4.3,0,8.4-1.2,11.8-3.3c2.9,3.8,7.5,6.3,12.7,6.3c4.5,0,8.6-1.9,11.5-4.9
					c2.9,3,7,4.9,11.5,4.9c5.7,0,10.7-3,13.5-7.4c3.2,8.4,11.4,14.4,21,14.4c7.8,0,14.7-4,18.7-10c4.1,4.3,9.9,7,16.3,7
					c12.4,0,22.5-10.1,22.5-22.5S200.9,25.9,188.5,25.9z"/>
			</g>
		</g>
		<g>
			<path class="st1" d="M251.7,323.4h-40.9v-17h40.9c10.5,0,19-8.4,19-18.7V155.1c0-10.3-8.5-18.7-19-18.7h-44.3v-17h44.3
				c20,0,36.3,16,36.3,35.7v132.7C288,307.4,271.7,323.4,251.7,323.4z"/>
		</g>
	</g>
	<g>
		<g>
			<g>
				<polygon class="st0" points="701,212.4 906,212.4 906,374.9 703,374.9 				"/>
			</g>
			<g>
				<path class="st1" d="M906,379.9H703c-2.8,0-5-2.2-5-5v-330c0-2.8,2.2-5,5-5h203c2.8,0,5,2.2,5,5v330
					C911,377.7,908.8,379.9,906,379.9z M708,369.9h193v-320H708V369.9z"/>
			</g>
			<g>
				<path class="st1" d="M885,198.4c-0.9,0-1.8,0.1-2.6,0.2c-1.2-11.3-10.7-20.2-22.4-20.2c-9.1,0-16.9,5.4-20.5,13.1
					c-0.7-0.1-1.3-0.1-2-0.1c-3.3,0-6.4,1-9,2.8c-2.6-1.7-5.7-2.8-9-2.8c-2.2,0-4.2,0.4-6.1,1.2c-4.1-5-10.4-8.2-17.4-8.2
					c-7.5,0-14.1,3.6-18.2,9.3c-3-1.4-6.3-2.3-9.8-2.3c-6.4,0-12.2,2.7-16.3,7c-2.9-4.2-7.7-7-13.2-7c-7.4,0-13.6,5.1-15.4,11.9
					c-2.2-1.2-4.8-1.9-7.6-1.9c-8.8,0-16,7.2-16,16s7.2,16,16,16c3.3,0,6.3-1,8.8-2.6c2.7,5.1,8,8.6,14.2,8.6
					c6.3,0,11.7-3.6,14.3-8.9c4,3.7,9.3,5.9,15.2,5.9c4.3,0,8.4-1.2,11.8-3.3c2.9,3.8,7.5,6.3,12.7,6.3c4.5,0,8.6-1.9,11.5-4.9
					c2.9,3,7,4.9,11.5,4.9c5.7,0,10.7-3,13.5-7.4c3.2,8.4,11.4,14.4,21,14.4c7.8,0,14.7-4,18.7-10c4.1,4.3,9.9,7,16.3,7
					c12.4,0,22.5-10.1,22.5-22.5S897.4,198.4,885,198.4z"/>
			</g>
		</g>
		<g>
			<path class="st1" d="M949.7,323.4h-40.9v-17h40.9c10.5,0,19-8.4,19-18.7V155.1c0-10.3-8.5-18.7-19-18.7h-44.3v-17h44.3
				c20,0,36.3,16,36.3,35.7v132.7C986,307.4,969.7,323.4,949.7,323.4z"/>
		</g>
	</g>
	<g>
		<g>
			<g class="st2">
				<polygon class="st3" points="1399,209.9 1604,209.9 1604,374.9 1401,374.9 				"/>
			</g>
			<g>
				<path class="st1" d="M1604,379.9h-203c-2.8,0-5-2.2-5-5v-330c0-2.8,2.2-5,5-5h203c2.8,0,5,2.2,5,5v330
					C1609,377.7,1606.8,379.9,1604,379.9z M1406,369.9h193v-320h-193V369.9z"/>
			</g>
			<g class="st2">
				<path class="st4" d="M1584.5,195.9c-0.9,0-1.8,0.1-2.6,0.2c-1.2-11.3-10.7-20.2-22.4-20.2c-9.1,0-16.9,5.4-20.5,13.1
					c-0.7-0.1-1.3-0.1-2-0.1c-3.3,0-6.4,1-9,2.8c-2.6-1.7-5.7-2.8-9-2.8c-2.2,0-4.2,0.4-6.1,1.2c-4.1-5-10.4-8.2-17.4-8.2
					c-7.5,0-14.1,3.6-18.2,9.3c-3-1.4-6.3-2.3-9.8-2.3c-6.4,0-12.2,2.7-16.3,7c-2.9-4.2-7.7-7-13.2-7c-7.4,0-13.6,5.1-15.4,11.9
					c-2.2-1.2-4.8-1.9-7.6-1.9c-8.8,0-16,7.2-16,16s7.2,16,16,16c3.3,0,6.3-1,8.8-2.6c2.7,5.1,8,8.6,14.2,8.6
					c6.3,0,11.7-3.6,14.3-8.9c4,3.7,9.3,5.9,15.2,5.9c4.3,0,8.4-1.2,11.8-3.3c2.9,3.8,7.5,6.3,12.7,6.3c4.5,0,8.6-1.9,11.5-4.9
					c2.9,3,7,4.9,11.5,4.9c5.7,0,10.7-3,13.5-7.4c3.2,8.4,11.4,14.4,21,14.4c7.8,0,14.7-4,18.7-10c4.1,4.3,9.9,7,16.3,7
					c12.4,0,22.5-10.1,22.5-22.5S1596.9,195.9,1584.5,195.9z"/>
			</g>
		</g>
		<g>
			<path class="st1" d="M1647.7,323.4h-40.9v-17h40.9c10.5,0,19-8.4,19-18.7V155.1c0-10.3-8.5-18.7-19-18.7h-44.3v-17h44.3
				c20,0,36.3,16,36.3,35.7v132.7C1684,307.4,1667.7,323.4,1647.7,323.4z"/>
		</g>
	</g>
	<g>
		<g>
			<g class="st2">
				<polygon class="st3" points="2097,209.9 2302,209.9 2302,374.9 2099,374.9 				"/>
			</g>
			<g>
				<path class="st1" d="M2302,379.9h-203c-2.8,0-5-2.2-5-5v-330c0-2.8,2.2-5,5-5h203c2.8,0,5,2.2,5,5v330
					C2307,377.7,2304.8,379.9,2302,379.9z M2104,369.9h193v-320h-193V369.9z"/>
			</g>
			<g class="st2">
				<path class="st4" d="M2282.5,195.9c-0.9,0-1.8,0.1-2.6,0.2c-1.2-11.3-10.7-20.2-22.4-20.2c-9.1,0-16.9,5.4-20.5,13.1
					c-0.7-0.1-1.3-0.1-2-0.1c-3.3,0-6.4,1-9,2.8c-2.6-1.7-5.7-2.8-9-2.8c-2.2,0-4.2,0.4-6.1,1.2c-4.1-5-10.4-8.2-17.4-8.2
					c-7.5,0-14.1,3.6-18.2,9.3c-3-1.4-6.3-2.3-9.8-2.3c-6.4,0-12.2,2.7-16.3,7c-2.9-4.2-7.7-7-13.2-7c-7.4,0-13.6,5.1-15.4,11.9
					c-2.2-1.2-4.8-1.9-7.6-1.9c-8.8,0-16,7.2-16,16s7.2,16,16,16c3.3,0,6.3-1,8.8-2.6c2.7,5.1,8,8.6,14.2,8.6
					c6.3,0,11.7-3.6,14.3-8.9c4,3.7,9.3,5.9,15.2,5.9c4.3,0,8.4-1.2,11.8-3.3c2.9,3.8,7.5,6.3,12.7,6.3c4.5,0,8.6-1.9,11.5-4.9
					c2.9,3,7,4.9,11.5,4.9c5.7,0,10.7-3,13.5-7.4c3.2,8.4,11.4,14.4,21,14.4c7.8,0,14.7-4,18.7-10c4.1,4.3,9.9,7,16.3,7
					c12.4,0,22.5-10.1,22.5-22.5S2294.9,195.9,2282.5,195.9z"/>
			</g>
		</g>
		<g>
			<path class="st1" d="M2345.7,323.4h-40.9v-17h40.9c10.5,0,19-8.4,19-18.7V155.1c0-10.3-8.5-18.7-19-18.7h-44.3v-17h44.3
				c20,0,36.3,16,36.3,35.7v132.7C2382,307.4,2365.7,323.4,2345.7,323.4z"/>
		</g>
	</g>
	<g>
		<g>
			<g class="st2">
				<polygon class="st3" points="2795,209.9 3000,209.9 3000,374.9 2797,374.9 				"/>
			</g>
			<g>
				<path class="st1" d="M3000,379.9h-203c-2.8,0-5-2.2-5-5v-330c0-2.8,2.2-5,5-5h203c2.8,0,5,2.2,5,5v330
					C3005,377.7,3002.8,379.9,3000,379.9z M2802,369.9h193v-320h-193V369.9z"/>
			</g>
			<g class="st2">
				<path class="st4" d="M2980.5,195.9c-0.9,0-1.8,0.1-2.6,0.2c-1.2-11.3-10.7-20.2-22.4-20.2c-9.1,0-16.9,5.4-20.5,13.1
					c-0.7-0.1-1.3-0.1-2-0.1c-3.3,0-6.4,1-9,2.8c-2.6-1.7-5.7-2.8-9-2.8c-2.2,0-4.2,0.4-6.1,1.2c-4.1-5-10.4-8.2-17.4-8.2
					c-7.5,0-14.1,3.6-18.2,9.3c-3-1.4-6.3-2.3-9.8-2.3c-6.4,0-12.2,2.7-16.3,7c-2.9-4.2-7.7-7-13.2-7c-7.4,0-13.6,5.1-15.4,11.9
					c-2.2-1.2-4.8-1.9-7.6-1.9c-8.8,0-16,7.2-16,16s7.2,16,16,16c3.3,0,6.3-1,8.8-2.6c2.7,5.1,8,8.6,14.2,8.6
					c6.3,0,11.7-3.6,14.3-8.9c4,3.7,9.3,5.9,15.2,5.9c4.3,0,8.4-1.2,11.8-3.3c2.9,3.8,7.5,6.3,12.7,6.3c4.5,0,8.6-1.9,11.5-4.9
					c2.9,3,7,4.9,11.5,4.9c5.7,0,10.7-3,13.5-7.4c3.2,8.4,11.4,14.4,21,14.4c7.8,0,14.7-4,18.7-10c4.1,4.3,9.9,7,16.3,7
					c12.4,0,22.5-10.1,22.5-22.5S2992.9,195.9,2980.5,195.9z"/>
			</g>
		</g>
		<g>
			<path class="st1" d="M3043.7,323.4h-40.9v-17h40.9c10.5,0,19-8.4,19-18.7V155.1c0-10.3-8.5-18.7-19-18.7h-44.3v-17h44.3
				c20,0,36.3,16,36.3,35.7v132.7C3080,307.4,3063.7,323.4,3043.7,323.4z"/>
		</g>
	</g>
</g>
</svg>
