<?xml version="1.0" encoding="utf-8"?>
<!-- Generator: Adobe Illustrator 21.0.0, SVG Export Plug-In . SVG Version: 6.00 Build 0)  -->
<svg version="1.1" id="Layer_1" xmlns="http://www.w3.org/2000/svg" xmlns:xlink="http://www.w3.org/1999/xlink" x="0px" y="0px"
	 viewBox="0 0 800 800" style="enable-background:new 0 0 800 800;" xml:space="preserve">
<style type="text/css">
	.st0{fill:#FFFFFF;}
	.st1{display:none;}
	.st2{display:inline;fill:#FFFFFF;}
</style>
<g>
	<g>
		<g>
			<path class="st0" d="M619.2,800.2H180.8c-6,0-10.8-4.8-10.8-10.8V76.6c0-6,4.8-10.8,10.8-10.8h438.4c6,0,10.8,4.8,10.8,10.8
				v712.7C630,795.4,625.3,800.2,619.2,800.2z M191.6,778.6h416.8V87.4H191.6V778.6z"/>
		</g>
		<g class="st1">
			<path class="st2" d="M577.1,178.2c-1.9,0-3.9,0.2-5.6,0.4c-2.6-24.4-23.1-43.6-48.4-43.6c-19.7,0-36.5,11.7-44.3,28.3
				c-1.5-0.2-2.8-0.2-4.3-0.2c-7.1,0-13.8,2.2-19.4,6c-5.6-3.7-12.3-6-19.4-6c-4.8,0-9.1,0.9-13.2,2.6
				c-8.9-10.8-22.5-17.7-37.6-17.7c-16.2,0-30.5,7.8-39.3,20.1c-6.5-3-13.6-5-21.2-5c-13.8,0-26.3,5.8-35.2,15.1
				c-6.3-9.1-16.6-15.1-28.5-15.1c-16,0-29.4,11-33.3,25.7c-4.8-2.6-10.4-4.1-16.4-4.1c-19,0-34.6,15.6-34.6,34.6
				s15.5,34.6,34.6,34.6c7.1,0,13.6-2.2,19-5.6c5.8,11,17.3,18.6,30.7,18.6c13.6,0,25.3-7.8,30.9-19.2c8.6,8,20.1,12.7,32.8,12.7
				c9.3,0,18.1-2.6,25.5-7.1c6.3,8.2,16.2,13.6,27.4,13.6c9.7,0,18.6-4.1,24.8-10.6c6.3,6.5,15.1,10.6,24.8,10.6
				c12.3,0,23.1-6.5,29.2-16c6.9,18.1,24.6,31.1,45.4,31.1c16.8,0,31.7-8.6,40.4-21.6c8.9,9.3,21.4,15.1,35.2,15.1
				c26.8,0,48.6-21.8,48.6-48.6S603.9,178.2,577.1,178.2z"/>
		</g>
	</g>
</g>
<g>
	<path class="st0" d="M714.6,678.1h-88.3v-36.7h88.3c22.7,0,41-18.1,41-40.4V314.6c0-22.2-18.4-40.4-41-40.4h-95.7v-36.7h95.7
		c43.2,0,78.4,34.6,78.4,77.1v286.6C793,643.6,757.8,678.1,714.6,678.1z"/>
</g>
</svg>
